#!OML:ASF H:\Terrain\Patient Classification 1\PLAYGROUND\JustinFriday\JustinFriday.ASF
:FULLY-SPECIFIED
:DEGREES
877
root 13.4637 18.68 12.3953 161.675 -23.2487 -187.267
lowerback 26.2955 5.53024 3.63731
upperback 0.203851 7.96016 -1.18415
thorax -13.7424 3.19072 -6.34206
lowerneck 9.09237 7.86886 0.0637345
upperneck 17.974 8.25383 8.07591
head 4.01269 3.77234 2.70756
rclavicle -7.36746e-014 -2.20651e-014
rhumerus 117.886 10.6289 -107.294
rradius 35.3123
rwrist 119.657
rhand 44.4745 26.9153
rfingers 7.12502
rthumb 65.9839 -338.533
lclavicle -7.36746e-014 -2.20651e-014
lhumerus 108.233 20.2935 58.3056
lradius 21.4333
lwrist 1.01485
lhand -16.4402 -12.0934
lfingers 7.12502
lthumb 9.77549 17.6597
rfemur 18.8385 7.59187 27.8052
rtibia 24.2547
rfoot 19.3105 4.17254
rtoes 23.7467
lfemur -29.4117 18.0833 -10.4108
ltibia 56.9974
lfoot -6.4516 -4.99926
ltoes -27.8288
878
root 13.4237 18.63 12.532 161.332 -22.4719 -186.347
lowerback 25.8274 5.39431 4.58553
upperback 0.184612 8.08598 -1.05671
thorax -13.3795 3.22343 -6.71001
lowerneck 7.99983 7.9212 0.248626
upperneck 19.6101 7.99987 9.05196
head 4.21555 3.73837 2.79705
rclavicle -9.08197e-014 4.03533e-014
rhumerus 117.814 11.0659 -109.235
rradius 33.9745
rwrist 120.996
rhand 42.2579 26.0054
rfingers 7.12502
rthumb 64.2384 -342.391
lclavicle -9.08197e-014 4.03533e-014
lhumerus 107.274 20.1737 56.6928
lradius 22.176
lwrist 1.38975
lhand -16.9278 -11.3928
lfingers 7.12502
lthumb 9.30504 18.3818
rfemur 18.9978 7.19104 28.2069
rtibia 23.7903
rfoot 17.7157 6.3022
rtoes 21.1501
lfemur -29.2164 17.5555 -9.53235
ltibia 57.3971
lfoot -6.56483 -5.76269
ltoes -27.8437
879
root 13.413 18.6034 12.6463 162.607 -21.2891 -185.791
lowerback 23.6986 5.69389 4.47777
upperback -0.182694 8.47132 -0.871647
thorax -12.6315 3.50336 -6.33075
lowerneck 8.41211 7.18394 1.03266
upperneck 18.5602 7.26764 7.94964
head 4.44857 3.33938 2.56347
rclavicle -2.63141e-014 -4.23411e-014
rhumerus 117.447 11.13 -110.647
rradius 33.1721
rwrist 121.679
rhand 40.4447 25.3516
rfingers 7.12502
rthumb 62.7628 -345.159
lclavicle -2.63141e-014 -4.23411e-014
lhumerus 106.154 20.2345 54.9808
lradius 23.027
lwrist 1.97941
lhand -17.389 -10.5861
lfingers 7.12502
lthumb 8.85996 19.2079
rfemur 17.5295 7.59202 28.3953
rtibia 23.5591
rfoot 16.7539 6.86058
rtoes 25.1072
lfemur -30.3309 18.0106 -9.1238
ltibia 57.7053
lfoot -6.90358 -6.55877
ltoes -28.4444
880
root 13.3581 18.5996 12.8057 163.681 -21.3026 -186.63
lowerback 22.579 5.54488 3.9166
upperback -0.342268 8.06544 -1.19367
thorax -12.2688 3.37771 -6.13096
lowerneck 9.46329 7.39123 1.45797
upperneck 17.7739 7.6926 7.66678
head 3.97975 3.53963 2.31402
rclavicle -4.40805e-014 1.09332e-014
rhumerus 116.785 11.5099 -112.291
rradius 32.4302
rwrist 122.381
rhand 38.4716 24.6509
rfingers 7.12502
rthumb 61.1166 -347.901
lclavicle -4.40805e-014 1.09332e-014
lhumerus 104.946 20.48 53.279
lradius 23.7659
lwrist 2.34799
lhand -17.8336 -9.79817
lfingers 7.12502
lthumb 8.43089 20.0136
rfemur 16.492 6.677 26.2983
rtibia 23.4364
rfoot 16.0901 8.36597
rtoes 30.8286
lfemur -30.7315 16.5992 -10.7916
ltibia 57.8119
lfoot -7.13424 -6.02554
ltoes -26.851
881
root 13.312 18.584 12.9464 163.792 -20.7324 -185.715
lowerback 21.5009 5.1521 4.64262
upperback -0.458905 7.75173 -0.982066
thorax -11.7707 3.2425 -6.08316
lowerneck 9.97742 7.31116 1.96864
upperneck 17.6245 7.63702 7.34203
head 3.87319 3.50637 2.09217
rclavicle -1.43622e-014 3.06128e-014
rhumerus 116.05 12.5703 -114.815
rradius 31.2725
rwrist 123.692
rhand 36.2115 23.7201
rfingers 7.12502
rthumb 59.1875 -350.886
lclavicle -1.43622e-014 3.06128e-014
lhumerus 103.546 20.8743 51.2531
lradius 24.4103
lwrist 2.65427
lhand -18.2978 -9.03245
lfingers 7.12502
lthumb 7.98289 20.7968
rfemur 15.8939 6.19703 26.5857
rtibia 23.2313
rfoot 14.7999 10.1377
rtoes 31.4573
lfemur -30.8895 15.5591 -10.2271
ltibia 58.0908
lfoot -7.31596 -5.99199
ltoes -25.8712
882
root 13.2708 18.581 13.0824 164.174 -20.1445 -184.893
lowerback 20.2533 4.82812 5.20853
upperback -0.639815 7.46379 -0.773782
thorax -11.269 3.12807 -5.95433
lowerneck 11.0519 8.03407 1.9822
upperneck 17.4613 8.56611 7.66736
head 3.58547 3.92858 2.13674
rclavicle -7.15625e-014 -3.67752e-014
rhumerus 115.303 13.7933 -117.616
rradius 30.0151
rwrist 125.342
rhand 33.9374 22.8071
rfingers 7.12502
rthumb 57.2077 -353.605
lclavicle -7.15625e-014 -3.67752e-014
lhumerus 101.993 21.3854 48.8418
lradius 25.1377
lwrist 3.35866
lhand -18.7992 -8.12708
lfingers 7.12502
lthumb 7.49898 21.72
rfemur 15.1525 5.94005 26.8649
rtibia 22.8283
rfoot 13.5938 11.7167
rtoes 29.9744
lfemur -31.2639 14.4727 -9.70849
ltibia 58.4403
lfoot -7.14307 -6.00544
ltoes -25.4907
883
root 13.2336 18.5883 13.2096 164.597 -19.5769 -184.126
lowerback 18.943 4.59252 5.62586
upperback -0.740528 7.23267 -0.487762
thorax -10.6608 3.05439 -5.66983
lowerneck 8.72018 7.72998 0.465568
upperneck 19.9306 7.46269 9.60516
head 4.20759 3.42104 2.91132
rclavicle 2.26615e-014 -4.37326e-015
rhumerus 114.595 14.466 -119.679
rradius 29.1635
rwrist 126.424
rhand 32.0006 22.3163
rfingers 7.12502
rthumb 55.496 -355.457
lclavicle 2.26615e-014 -4.37326e-015
lhumerus 100.377 22.0249 46.2796
lradius 25.964
lwrist 4.40495
lhand -19.3472 -7.11072
lfingers 7.12502
lthumb 6.96997 22.7545
rfemur 14.5293 5.92002 27.229
rtibia 22.1371
rfoot 12.6944 12.8058
rtoes 29.4205
lfemur -31.6798 13.3199 -9.19
ltibia 58.9674
lfoot -6.9419 -5.87447
ltoes -24.9935
